<?xml version="1.0" encoding="utf-8"?>
<!-- Generator: Adobe Illustrator 22.0.0, SVG Export Plug-In . SVG Version: 6.00 Build 0)  -->
<svg version="1.1" id="Layer_1" xmlns="http://www.w3.org/2000/svg" xmlns:xlink="http://www.w3.org/1999/xlink" x="0px" y="0px"
	 viewBox="0 0 14 14" style="enable-background:new 0 0 14 14;" xml:space="preserve">
<g>
	<path d="M11,9.7H3c-0.2,0-0.4-0.1-0.4-0.3C2.5,9.2,2.6,9,2.8,8.9c0,0,1.1-0.8,1.1-3.6c0-1.7,1.4-3.1,3.1-3.1s3.1,1.4,3.1,3.1
		c0,2.8,1.1,3.6,1.1,3.6c0.2,0.1,0.2,0.3,0.2,0.5C11.4,9.5,11.2,9.7,11,9.7z M4,8.8h6C9.6,8.1,9.2,7,9.2,5.3C9.2,4,8.2,3,7,3
		S4.8,4,4.8,5.2C4.8,7,4.4,8.1,4,8.8z"/>
</g>
<g>
	<path d="M7,11.9c-0.2,0-0.5-0.1-0.7-0.2c-0.2-0.1-0.4-0.3-0.5-0.5c-0.1-0.2,0-0.5,0.2-0.6c0.2-0.1,0.5-0.1,0.6,0.2
		c0,0.1,0.1,0.1,0.2,0.2c0.1,0,0.2,0,0.3,0s0.2-0.1,0.3-0.2c0.1-0.2,0.4-0.3,0.6-0.2c0.2,0.1,0.3,0.4,0.2,0.6
		c-0.2,0.3-0.5,0.5-0.8,0.6C7.2,11.9,7.1,11.9,7,11.9z"/>
</g>
</svg>
