<?xml version="1.0" encoding="utf-8"?>
<!-- Generator: Adobe Illustrator 22.0.0, SVG Export Plug-In . SVG Version: 6.00 Build 0)  -->
<svg version="1.1" id="Layer_1" xmlns="http://www.w3.org/2000/svg" xmlns:xlink="http://www.w3.org/1999/xlink" x="0px" y="0px"
	 viewBox="0 0 55 55" style="enable-background:new 0 0 55 55;" xml:space="preserve">
<style type="text/css">
	.st0{clip-path:url(#SVGID_2_);}
	.st1{fill:#A8A8AA;}
</style>
<g>
	<defs>
		<circle id="SVGID_1_" cx="27.5" cy="27.5" r="26.5"/>
	</defs>
	<clipPath id="SVGID_2_">
		<use xlink:href="#SVGID_1_"  style="overflow:visible;"/>
	</clipPath>
	<g class="st0">
		<g>
			<path class="st1" d="M27.8,34.4c4.1,0,7.9,1,11.4,2.9c3.5,2,6.2,4.6,8.3,7.9c2,3.3,3,6.9,3,10.8H5.1c0-3.9,1-7.5,3-10.8
				c2-3.3,4.8-5.9,8.3-7.9C19.9,35.4,23.7,34.4,27.8,34.4z M35,28.8c2-2,3-4.4,3-7.2c0-2.8-1-5.2-3-7.2c-2-2-4.4-3-7.2-3
				c-2.8,0-5.2,1-7.2,3c-2,2-3,4.4-3,7.2c0,2.8,1,5.2,3,7.2c2,2,4.4,3,7.2,3C30.6,31.8,33,30.8,35,28.8z"/>
		</g>
	</g>
</g>
</svg>
