<?xml version="1.0" encoding="utf-8"?>
<!-- Generator: Adobe Illustrator 22.0.0, SVG Export Plug-In . SVG Version: 6.00 Build 0)  -->
<svg version="1.1" id="Layer_1" xmlns="http://www.w3.org/2000/svg" xmlns:xlink="http://www.w3.org/1999/xlink" x="0px" y="0px"
	 viewBox="0 0 14 14" style="enable-background:new 0 0 14 14;" xml:space="preserve">
<g>
	<path d="M11.2,6.4H3c-0.8,0-1.4-0.3-1.4-0.8v-2C1.5,3.1,2,2.8,3,2.8h8.2c0.8,0,1.4,0.3,1.4,0.8v2C12.6,6.1,11.9,6.4,11.2,6.4z
		 M2.5,5.5c0.1,0,0.3,0.1,0.5,0.1h8.2c0.2,0,0.4,0,0.5-0.1V3.9c-0.1,0-0.3-0.1-0.5-0.1H3c-0.2,0-0.4,0-0.5,0.1L2.5,5.5L2.5,5.5z"/>
</g>
<g>
	<path d="M11.2,11.2H3c-0.8,0-1.4-0.3-1.4-0.8V8.4C1.5,7.9,2,7.6,3,7.6h8.2c0.8,0,1.4,0.3,1.4,0.8v1.9
		C12.6,10.9,11.9,11.2,11.2,11.2z M2.5,10.2c0.1,0,0.3,0.1,0.5,0.1h8.2c0.2,0,0.4,0,0.5-0.1V8.7c-0.1,0-0.3-0.1-0.5-0.1H3
		c-0.2,0-0.4,0-0.5,0.1L2.5,10.2L2.5,10.2z"/>
</g>
</svg>
