<?xml version="1.0" encoding="utf-8"?>
<!-- Generator: Adobe Illustrator 22.0.0, SVG Export Plug-In . SVG Version: 6.00 Build 0)  -->
<svg version="1.1" id="Layer_1" xmlns="http://www.w3.org/2000/svg" xmlns:xlink="http://www.w3.org/1999/xlink" x="0px" y="0px"
	 viewBox="0 0 43 18" style="enable-background:new 0 0 43 18;" xml:space="preserve">
<style type="text/css">
	.st0{fill:#231F20;}
	.st1{fill:#ED1B24;}
</style>
<g>
	<g>
		<path class="st0" d="M13.5,1.9c0.3,0.3,0.5,0.7,0.5,1.1c0,0.4-0.2,0.8-0.5,1.1c-0.3,0.3-0.7,0.4-1.1,0.4s-0.8-0.1-1.1-0.4
			c-0.3-0.3-0.4-0.7-0.4-1.1c0-0.4,0.1-0.8,0.4-1.1c0.3-0.3,0.7-0.5,1.1-0.5S13.2,1.6,13.5,1.9z M10.9,14.4V5.8h2.8v8.7H10.9z"/>
		<path class="st0" d="M18.8,12.2h3.8v2.2h-7.7v-0.9L18.8,8H15V5.8h7.7v0.9L18.8,12.2z"/>
		<path class="st0" d="M10,9.4C10,8.7,9.8,8,9.3,7.3C8.4,6,7.1,5.4,5.4,5.5C4.6,5.5,3.9,5.9,3.4,6.6c0,0,0,0-0.1,0c0,0,0-0.1,0-0.1
			c0-1.5,0-2.7,0-4.2c0-0.2,0-0.2-0.2-0.2c-0.8,0-1.5,0-2.3,0c-0.1,0-0.1,0-0.2,0c0,2.8,0,5.3,0,8.1c0,0,0,0.1,0,0.1
			c0,0.3,0.1,0.6,0.1,0.9c0.3,1.4,1.1,2.4,2.4,3c1.1,0.5,2.2,0.6,3.3,0.3c1.4-0.3,2.5-1.1,3.1-2.4C10,11.3,10.1,10.4,10,9.4z
			 M5.4,12.2c-1.2,0-2.1-0.9-2.1-2.1C3.3,8.9,4.2,8,5.4,8s2.1,0.9,2.1,2.1C7.5,11.3,6.6,12.2,5.4,12.2z"/>
		<g>
			<g>
				<path class="st1" d="M25.5,9c0.1,0,0.3,0,0.4,0c2.3,0,4.6,0,6.8,0c0.8,0,1,0.3,0.6,1c-1.2,2-2.3,4-3.5,6
					c-0.1,0.1-0.1,0.2-0.2,0.3C27.1,15,25.3,11.6,25.5,9z M41.7,12.4c0.5-1.2,0.7-2.4,0.7-3.6c-0.1-4.6-3.9-8.3-8.5-8.3
					c-0.6,0-1.1,0.1-1.7,0.2c0,0-0.1,0-0.1,0c0,0,0,0-0.1,0c-0.7,0.2-1.4,0.4-2.1,0.8c-0.2,0.1-0.3,0.2-0.5,0.3
					c-0.5,0.3-1,0.7-1.4,1.1c0,0,0,0-0.1,0.1c0,0,0,0-0.1,0c-0.6,0.6-1.1,1.2-1.5,2c0.3,0,0.5,0,0.6,0c2.3,0,4.6,0,6.8,0
					c1.9,0,3.5,1.3,3.9,3.1c0.3,1.4,0,2.6-0.7,3.8c-1.1,1.9-2.2,3.8-3.3,5.7c0,0,0.1,0,0.1,0c3.1,0,5.8-1.6,7.3-4.1
					c0-0.1,0.1-0.1,0.1-0.2c0.1-0.2,0.2-0.4,0.3-0.6c0,0,0,0,0,0c0,0,0,0,0,0c0,0,0,0,0,0C41.6,12.5,41.6,12.4,41.7,12.4z"/>
			</g>
		</g>
	</g>
</g>
</svg>
