<?xml version="1.0" encoding="utf-8"?>
<!-- Generator: Adobe Illustrator 22.0.0, SVG Export Plug-In . SVG Version: 6.00 Build 0)  -->
<svg version="1.1" id="Layer_1" xmlns="http://www.w3.org/2000/svg" xmlns:xlink="http://www.w3.org/1999/xlink" x="0px" y="0px"
	 viewBox="0 0 90 37" style="enable-background:new 0 0 90 37;" xml:space="preserve">
<style type="text/css">
	.st0{fill:#FFFFFF;}
</style>
<g>
	<g>
		<path class="st0" d="M27.8,3.2c0.7,0.7,1,1.4,1,2.3c0,0.9-0.3,1.7-1,2.4c-0.7,0.6-1.5,1-2.5,1s-1.8-0.3-2.4-0.9
			c-0.6-0.6-1-1.4-1-2.4c0-0.9,0.3-1.7,1-2.3c0.6-0.7,1.5-1,2.4-1C26.4,2.2,27.2,2.5,27.8,3.2z M22.4,30V11.5h5.9V30H22.4z"/>
		<path class="st0" d="M39.2,25.5h8.2v4.7H30.8v-1.9l8.4-12h-8.1v-4.7h16.5v2L39.2,25.5z"/>
		<path class="st0" d="M20.5,19.4c-0.1-1.6-0.6-3.1-1.5-4.4c-2-2.9-4.8-4.2-8.3-4c-1.8,0.1-3.3,0.9-4.4,2.3c0,0,0,0.1-0.1,0
			c0-0.1,0-0.2,0-0.3c0-3.1,0-5.8,0-8.9c0-0.5,0.1-0.4-0.4-0.4c-1.6,0-3.3,0-4.9,0c-0.1,0-0.3,0-0.4,0c0,5.9,0,11.4,0,17.3
			c0,0.1,0,0.2,0,0.3c0,0.6,0.1,1.3,0.3,1.9c0.7,3,2.3,5.2,5.1,6.4c2.3,1.1,4.7,1.2,7.1,0.7c3-0.6,5.2-2.3,6.6-5.1
			C20.4,23.4,20.7,21.4,20.5,19.4z M10.6,25.4c-2.5,0-4.5-2-4.5-4.5c0-2.6,2-4.5,4.5-4.5s4.5,2,4.5,4.5
			C15.2,23.4,13.1,25.4,10.6,25.4z"/>
		<g>
			<g>
				<path class="st0" d="M53.4,18.5c0.3,0,0.6,0,0.9,0c4.9,0,9.7,0,14.6,0c1.7,0,2.1,0.6,1.2,2.1c-2.5,4.3-4.9,8.6-7.4,12.9
					c-0.1,0.2-0.3,0.4-0.4,0.6C56.8,31.3,53,24.1,53.4,18.5z M88,25.6c1.1-2.5,1.6-5,1.5-7.7C89.3,8.2,81.2,0.3,71.4,0.3
					c-1.2,0-2.4,0.1-3.6,0.4c-0.1,0-0.1,0-0.2,0h-0.1C66,1,64.4,1.6,63,2.4c-0.4,0.2-0.7,0.4-1.1,0.6c-1.1,0.7-2.1,1.4-3,2.3
					l-0.1,0.1l-0.1,0.1c-1.2,1.2-2.3,2.6-3.2,4.3c0.6,0,1,0,1.4,0c4.9,0,9.7,0,14.6,0c4,0,7.4,2.7,8.3,6.6c0.7,2.9-0.1,5.6-1.5,8.1
					c-2.4,4-4.7,8.1-7.1,12.1c0.1,0,0.2,0,0.3,0c6.6,0,12.3-3.5,15.5-8.7c0.1-0.1,0.2-0.3,0.3-0.4c0.2-0.4,0.4-0.8,0.6-1.2l0,0l0,0
					v-0.1C87.9,26,88,25.9,88,25.6z"/>
			</g>
		</g>
	</g>
</g>
</svg>
