<?xml version="1.0" encoding="utf-8"?>
<!-- Generator: Adobe Illustrator 22.0.0, SVG Export Plug-In . SVG Version: 6.00 Build 0)  -->
<svg version="1.1" id="Layer_1" xmlns="http://www.w3.org/2000/svg" xmlns:xlink="http://www.w3.org/1999/xlink" x="0px" y="0px"
	 viewBox="0 0 14 14" style="enable-background:new 0 0 14 14;" xml:space="preserve">
<style type="text/css">
	.st0{fill:#5C5E62;}
</style>
<g>
	<g>
		<path class="st0" d="M7,7.1c0.8,0,1.5,0.2,2.1,0.6c0.7,0.4,1.2,0.9,1.6,1.5c0.4,0.6,0.6,1.3,0.6,2H2.7c0-0.7,0.2-1.4,0.6-2
			s0.9-1.1,1.6-1.5S6.2,7.1,7,7.1z M5.3,8.1C4.8,8.3,4.4,8.7,4,9.1s-0.6,0.9-0.7,1.5h7.3c-0.1-0.5-0.3-1-0.7-1.5s-0.8-0.8-1.3-1
			C8.2,7.8,7.6,7.7,7,7.7C6.4,7.7,5.8,7.8,5.3,8.1z M8.4,6.1c0.4-0.4,0.6-0.8,0.6-1.4c0-0.5-0.2-1-0.6-1.4C8,3,7.5,2.8,7,2.8
			C6.5,2.8,6,3,5.6,3.4C5.3,3.7,5.1,4.2,5.1,4.7c0,0.5,0.2,1,0.6,1.4C6,6.4,6.5,6.6,7,6.6C7.5,6.6,8,6.4,8.4,6.1z M7.9,3.8
			C8.2,4,8.3,4.3,8.3,4.7c0,0.4-0.1,0.7-0.4,0.9S7.4,6,7,6C6.6,6,6.3,5.9,6.1,5.7C5.8,5.4,5.7,5.1,5.7,4.7c0-0.4,0.1-0.7,0.4-0.9
			C6.3,3.5,6.6,3.4,7,3.4C7.4,3.4,7.7,3.5,7.9,3.8z"/>
		<path class="st0" d="M11.4,11.4H2.6v-0.2c0-0.8,0.2-1.5,0.6-2.1s0.9-1.2,1.6-1.5C5.5,7.2,6.2,7,7,7c0.8,0,1.5,0.2,2.2,0.6
			c0.7,0.4,1.2,0.9,1.6,1.5c0.4,0.6,0.6,1.4,0.6,2.1V11.4z M2.9,11.1h8.2c0-0.6-0.2-1.3-0.5-1.8c-0.4-0.6-0.9-1.1-1.5-1.4
			C8.4,7.5,7.7,7.3,7,7.3c-0.7,0-1.4,0.2-2.1,0.5C4.3,8.2,3.8,8.6,3.4,9.2C3.1,9.8,2.9,10.4,2.9,11.1z M10.8,10.8H3.2l0-0.2
			C3.3,10,3.6,9.5,3.9,9C4.3,8.6,4.7,8.2,5.3,8h0c1.1-0.5,2.4-0.5,3.5,0c0.5,0.3,1,0.6,1.3,1.1c0.4,0.5,0.6,1,0.7,1.5L10.8,10.8z
			 M3.6,10.5h6.9c-0.1-0.4-0.3-0.9-0.6-1.2c-0.3-0.4-0.7-0.8-1.2-1c-1-0.5-2.2-0.5-3.2,0c-0.5,0.2-0.9,0.6-1.2,1
			C3.9,9.6,3.7,10,3.6,10.5z M7,6.8c-0.6,0-1.1-0.2-1.5-0.6C5.1,5.8,4.9,5.3,4.9,4.7c0-0.6,0.2-1.1,0.6-1.5C5.9,2.9,6.4,2.7,7,2.7
			c0.6,0,1.1,0.2,1.5,0.6c0.4,0.4,0.6,0.9,0.6,1.5c0,0.6-0.2,1.1-0.6,1.5l0,0C8.1,6.6,7.6,6.8,7,6.8z M7,3C6.5,3,6.1,3.1,5.8,3.5
			C5.4,3.8,5.2,4.2,5.2,4.7c0,0.5,0.2,0.9,0.5,1.2C6.1,6.3,6.5,6.5,7,6.5c0.5,0,0.9-0.2,1.2-0.5h0c0.3-0.3,0.5-0.8,0.5-1.2
			c0-0.5-0.2-0.9-0.5-1.2C7.9,3.1,7.5,3,7,3z M7,6.2C6.6,6.2,6.2,6,6,5.8c-0.3-0.3-0.4-0.6-0.4-1S5.7,4,6,3.7c0.3-0.3,0.6-0.4,1-0.4
			c0.4,0,0.8,0.1,1,0.4c0.3,0.3,0.4,0.6,0.4,1S8.3,5.5,8,5.8C7.8,6,7.4,6.2,7,6.2z M7,3.5c-0.3,0-0.6,0.1-0.8,0.3
			C5.9,4.1,5.8,4.4,5.8,4.7s0.1,0.6,0.3,0.8C6.4,5.8,6.7,5.9,7,5.9c0.3,0,0.6-0.1,0.8-0.3C8.1,5.3,8.2,5,8.2,4.7S8.1,4.1,7.8,3.9
			C7.6,3.7,7.3,3.5,7,3.5z"/>
	</g>
</g>
</svg>
