<?xml version="1.0" encoding="utf-8"?>
<!-- Generator: Adobe Illustrator 22.0.0, SVG Export Plug-In . SVG Version: 6.00 Build 0)  -->
<svg version="1.1" id="Layer_1" xmlns="http://www.w3.org/2000/svg" xmlns:xlink="http://www.w3.org/1999/xlink" x="0px" y="0px"
	 viewBox="0 0 14 14" style="enable-background:new 0 0 14 14;" xml:space="preserve">
<style type="text/css">
	.st0{fill:#5C5E62;}
</style>
<g>
	<g>
		<path class="st0" d="M9.9,2.7C10,2.7,10,2.8,10,2.9v8.1c0,0.1,0,0.2-0.1,0.2c-0.1,0.1-0.2,0.1-0.2,0.1H4.2c-0.1,0-0.2,0-0.2-0.1
			c-0.1-0.1-0.1-0.2-0.1-0.2V2.9c0-0.1,0-0.2,0.1-0.2C4,2.6,4.1,2.6,4.2,2.6h5.4C9.7,2.6,9.8,2.6,9.9,2.7z M4.4,3.2v0.9h5V3.2H4.4z
			 M9.5,10.8V4.6h-5v6.2H9.5z M6.7,10C6.8,10,6.9,9.9,6.9,9.9s0.2,0,0.2,0.1c0.1,0.1,0.1,0.1,0.1,0.2s0,0.2-0.1,0.2
			c-0.1,0.1-0.1,0.1-0.2,0.1s-0.2,0-0.2-0.1c-0.1-0.1-0.1-0.1-0.1-0.2S6.7,10.1,6.7,10z"/>
		<path class="st0" d="M9.7,11.6H4.2c-0.1,0-0.3-0.1-0.4-0.1c-0.1-0.1-0.1-0.2-0.1-0.4V2.9c0-0.1,0-0.3,0.1-0.4
			c0.1-0.1,0.2-0.1,0.4-0.1h5.4c0.1,0,0.3,0,0.4,0.1c0.1,0.1,0.2,0.2,0.2,0.4v8.1c0,0.1,0,0.3-0.1,0.4C10,11.5,9.8,11.6,9.7,11.6z
			 M4.2,2.7c-0.1,0-0.1,0-0.1,0.1C4,2.8,4,2.9,4,2.9v8.1c0,0.1,0,0.1,0.1,0.1c0,0,0.1,0.1,0.1,0.1h5.5c0.1,0,0.1,0,0.1-0.1
			c0,0,0.1-0.1,0.1-0.1V2.9c0,0,0-0.1-0.1-0.1c-0.1,0-0.1-0.1-0.2-0.1H4.2z M9.6,11H4.3V4.5h5.3V11z M7,10.7h2.3V4.8H4.6v5.9h2.3
			c-0.1,0-0.2-0.1-0.2-0.1c-0.1-0.1-0.1-0.2-0.1-0.3c0-0.1,0-0.2,0.1-0.3c0.2-0.2,0.5-0.2,0.6,0c0.1,0.1,0.1,0.2,0.1,0.3
			c0,0.1,0,0.2-0.1,0.3C7.2,10.6,7.1,10.7,7,10.7z M6.9,10.1c-0.1,0-0.1,0-0.1,0l0,0c0,0,0,0,0,0.1c0,0.1,0,0.1,0,0.1c0,0,0,0,0.1,0
			c0.1,0,0.1,0,0.1,0c0,0,0,0,0-0.1c0-0.1,0-0.1,0-0.1C7,10.1,7,10.1,6.9,10.1z M9.6,4.2H4.3V3h5.3V4.2z M4.6,3.9h4.7V3.3H4.6V3.9z"
			/>
	</g>
</g>
</svg>
